<svg width="24" height="24" viewBox="0 0 24 24" fill="none" xmlns="http://www.w3.org/2000/svg">
<path fill-rule="evenodd" clip-rule="evenodd" d="M23.0607 0.93934C23.6464 1.52513 23.6464 2.47487 23.0607 3.06066L3.06066 23.0607C2.47487 23.6464 1.52513 23.6464 0.93934 23.0607C0.353553 22.4749 0.353553 21.5251 0.93934 20.9393L20.9393 0.93934C21.5251 0.353553 22.4749 0.353553 23.0607 0.93934Z" fill="black"/>
<path fill-rule="evenodd" clip-rule="evenodd" d="M1.55206 2C1.55206 1.17157 2.22364 0.5 3.05206 0.5L21.9994 0.5C22.8279 0.5 23.4994 1.17157 23.4994 2L23.4994 20.9474C23.4994 21.7758 22.8279 22.4474 21.9994 22.4474C21.171 22.4474 20.4994 21.7758 20.4994 20.9474L20.4994 3.5L3.05206 3.5C2.22364 3.5 1.55206 2.82843 1.55206 2Z" fill="black"/>
</svg>
