<svg width="24" height="24" viewBox="0 0 24 24" fill="none" xmlns="http://www.w3.org/2000/svg">
<path fill-rule="evenodd" clip-rule="evenodd" d="M23.0607 23.0607C22.4749 23.6464 21.5251 23.6464 20.9393 23.0607L0.939339 3.06066C0.353552 2.47487 0.353552 1.52513 0.939339 0.93934C1.52513 0.353553 2.47487 0.353553 3.06066 0.93934L23.0607 20.9393C23.6464 21.5251 23.6464 22.4749 23.0607 23.0607Z" fill="black"/>
<path fill-rule="evenodd" clip-rule="evenodd" d="M22 1.55206C22.8284 1.55206 23.5 2.22364 23.5 3.05206V21.9994C23.5 22.8279 22.8284 23.4994 22 23.4994H3.05262C2.2242 23.4994 1.55262 22.8279 1.55262 21.9994C1.55262 21.171 2.2242 20.4994 3.05262 20.4994H20.5V3.05206C20.5 2.22364 21.1716 1.55206 22 1.55206Z" fill="black"/>
</svg>
