<svg width="24" height="24" viewBox="0 0 24 24" fill="none" xmlns="http://www.w3.org/2000/svg">
<path fill-rule="evenodd" clip-rule="evenodd" d="M12 4C7.58172 4 4 7.58172 4 12C4 16.4183 7.58172 20 12 20C16.4183 20 20 16.4183 20 12C20 7.58172 16.4183 4 12 4ZM0 12C0 5.37258 5.37258 0 12 0C18.6274 0 24 5.37258 24 12C24 18.6274 18.6274 24 12 24C5.37258 24 0 18.6274 0 12Z" fill="black"/>
<path fill-rule="evenodd" clip-rule="evenodd" d="M11.9988 3.99986C13.1033 3.99986 13.9988 4.89529 13.9988 5.99986V11.1714L16.413 13.5856C17.194 14.3667 17.194 15.633 16.413 16.4141C15.6319 17.1951 14.3656 17.1951 13.5846 16.4141L10.5846 13.4141C10.2095 13.039 9.99878 12.5303 9.99878 11.9999V5.99986C9.99878 4.89529 10.8942 3.99986 11.9988 3.99986Z" fill="black"/>
</svg>
