<svg width="24" height="24" viewBox="0 0 24 24" fill="none" xmlns="http://www.w3.org/2000/svg">
<path d="M2 2V17H8V22L13 17H22V2H2ZM20 15H13H12.172L11.586 15.586L10 17.172V17V15H8H4V4H20V15Z" fill="black"/>
<path d="M7 11C7.82843 11 8.5 10.3284 8.5 9.5C8.5 8.67157 7.82843 8 7 8C6.17157 8 5.5 8.67157 5.5 9.5C5.5 10.3284 6.17157 11 7 11Z" fill="black"/>
<path d="M12 11C12.8284 11 13.5 10.3284 13.5 9.5C13.5 8.67157 12.8284 8 12 8C11.1716 8 10.5 8.67157 10.5 9.5C10.5 10.3284 11.1716 11 12 11Z" fill="black"/>
<path d="M17 11C17.8284 11 18.5 10.3284 18.5 9.5C18.5 8.67157 17.8284 8 17 8C16.1716 8 15.5 8.67157 15.5 9.5C15.5 10.3284 16.1716 11 17 11Z" fill="black"/>
</svg>
