<svg width="24" height="24" viewBox="0 0 24 24" fill="none" xmlns="http://www.w3.org/2000/svg">
<path d="M19.8 12.2L12.3 2.7C12.2 2.6 12.1 2.5 11.9 2.5C11.8 2.5 11.6 2.6 11.5 2.7L3.99999 12.2C3.89999 12.4 3.89999 12.6 3.99999 12.8L11.5 22.3C11.6 22.4 11.7 22.5 11.9 22.5C12 22.5 12.2 22.4 12.3 22.3L19.8 12.8C19.9 12.6 19.9 12.4 19.8 12.2ZM11.9 4.5L14.5 12H9.29999L11.9 4.5ZM10.5 5.5L8.29999 12H5.29999L10.5 5.5ZM5.39999 13H8.29999L9.29999 16L10.5 19.5L5.39999 13ZM12 20.5L9.29999 13H14.4L12 20.5ZM13.2 19.5L15.4 12.9H18.4L13.2 19.5ZM15.5 12L13.3 5.4L18.5 12H15.5Z" fill="black"/>
</svg>
