<svg width="24" height="24" viewBox="0 0 24 24" fill="none" xmlns="http://www.w3.org/2000/svg">
<path fill-rule="evenodd" clip-rule="evenodd" d="M3.9999 4.99985C3.73471 4.99985 3.48038 5.10519 3.29286 5.29271C3.10535 5.48023 3 5.73455 3 5.99974V19.999C3 20.2642 3.10535 20.5185 3.29286 20.7061C3.48038 20.8936 3.73471 20.9989 3.9999 20.9989H17.9992C18.2644 20.9989 18.5187 20.8936 18.7062 20.7061C18.8937 20.5185 18.9991 20.2642 18.9991 19.999V14.6593C18.9991 14.107 19.4468 13.6593 19.9991 13.6593C20.5514 13.6593 20.9991 14.107 20.9991 14.6593V19.999C20.9991 20.7946 20.683 21.5577 20.1204 22.1203C19.5578 22.6829 18.7948 22.9989 17.9992 22.9989H3.9999C3.20427 22.9989 2.44124 22.6829 1.87865 22.1203C1.31606 21.5577 1 20.7946 1 19.999V5.99974C1 5.20412 1.31606 4.44109 1.87865 3.8785C2.44124 3.31591 3.20427 2.99985 3.9999 2.99985H9.33962C9.89191 2.99985 10.3396 3.44756 10.3396 3.99985C10.3396 4.55213 9.89191 4.99985 9.33962 4.99985H3.9999Z" fill="black"/>
<path fill-rule="evenodd" clip-rule="evenodd" d="M17.2931 1.29289C17.6836 0.902369 18.3168 0.902369 18.7073 1.29289L22.7071 5.29269C23.0976 5.68321 23.0976 6.31638 22.7071 6.7069L12.7076 16.7064C12.5201 16.8939 12.2657 16.9993 12.0005 16.9993H8.00073C7.44845 16.9993 7.00073 16.5516 7.00073 15.9993V11.9995C7.00073 11.7343 7.10609 11.4799 7.29363 11.2924L17.2931 1.29289ZM9.00073 12.4137V14.9993H11.5863L20.5858 5.99979L18.0002 3.41421L9.00073 12.4137Z" fill="black"/>
</svg>
