<svg width="24" height="24" viewBox="0 0 24 24" fill="none" xmlns="http://www.w3.org/2000/svg">
<path d="M18.325 6.775C18.325 6.927 18.295 7.07752 18.2369 7.21795C18.1788 7.35838 18.0934 7.48598 17.986 7.59347C17.8785 7.70096 17.7509 7.78621 17.6104 7.84438C17.47 7.90256 17.3195 7.93249 17.1675 7.93249C17.0155 7.93249 16.865 7.90256 16.7245 7.84438C16.5841 7.78621 16.4565 7.70096 16.349 7.59347C16.2415 7.48598 16.1563 7.35838 16.0981 7.21795C16.0399 7.07752 16.01 6.927 16.01 6.775C16.01 6.46801 16.1319 6.1736 16.349 5.95652C16.5661 5.73945 16.8605 5.6175 17.1675 5.6175C17.4745 5.6175 17.7689 5.73945 17.986 5.95652C18.203 6.1736 18.325 6.46801 18.325 6.775ZM22 12V12.015L21.9338 16.21C21.9169 17.7229 21.3084 19.1691 20.2386 20.239C19.169 21.309 17.7229 21.9177 16.21 21.935L12 22H11.985L7.79 21.9337C6.27709 21.9169 4.83089 21.3084 3.76093 20.2387C2.69095 19.169 2.08222 17.7229 2.065 16.21L2 12V11.985L2.06625 7.78999C2.08314 6.27708 2.69155 4.83089 3.76129 3.76093C4.83103 2.69095 6.27709 2.08221 7.79 2.065L12 2H12.015L16.21 2.06625C17.7229 2.08314 19.1691 2.69155 20.239 3.76129C21.309 4.83102 21.9177 6.27708 21.935 7.78999L22 12ZM20.1375 12L20.0725 7.81874C20.0608 6.79035 19.647 5.80737 18.9199 5.08014C18.1926 4.35291 17.2096 3.93919 16.1813 3.9275L12 3.8625L7.81875 3.9275C6.79035 3.93919 5.80737 4.35291 5.08014 5.08014C4.35291 5.80737 3.93919 6.79035 3.9275 7.81874L3.8625 12L3.9275 16.1812C3.93919 17.2096 4.35291 18.1926 5.08014 18.9199C5.80737 19.6471 6.79035 20.0607 7.81875 20.0725L12 20.1375L16.1813 20.0725C17.2096 20.0607 18.1926 19.6471 18.9199 18.9199C19.647 18.1926 20.0608 17.2096 20.0725 16.1812L20.1375 12ZM17.135 12C17.135 13.3619 16.594 14.668 15.631 15.631C14.668 16.594 13.3619 17.135 12 17.135C10.6381 17.135 9.33199 16.594 8.369 15.631C7.406 14.668 6.865 13.3619 6.865 12C6.865 10.6381 7.406 9.33199 8.369 8.36899C9.33199 7.406 10.6381 6.865 12 6.865C13.3619 6.865 14.668 7.406 15.631 8.36899C16.594 9.33199 17.135 10.6381 17.135 12ZM15.2725 12C15.2725 11.1321 14.9278 10.2997 14.314 9.68598C13.7003 9.07227 12.8679 8.72749 12 8.72749C11.1321 8.72749 10.2997 9.07227 9.68598 9.68598C9.07227 10.2997 8.7275 11.1321 8.7275 12C8.7275 12.8679 9.07227 13.7002 9.68598 14.314C10.2997 14.9277 11.1321 15.2725 12 15.2725C12.8679 15.2725 13.7003 14.9277 14.314 14.314C14.9278 13.7002 15.2725 12.8679 15.2725 12Z" fill="black"/>
</svg>
