<svg width="24" height="24" viewBox="0 0 24 24" fill="none" xmlns="http://www.w3.org/2000/svg">
<path fill-rule="evenodd" clip-rule="evenodd" d="M0 2C0 0.89543 0.89543 0 2 0H12.4321C12.9626 0 13.4714 0.210786 13.8465 0.585971L22.8119 9.5537C23.5729 10.3195 24 11.3553 24 12.4348C24 13.5144 23.5729 14.5502 22.8119 15.316L21.3934 13.9062L22.8077 15.3202L15.3286 22.8012C15.3284 22.8014 15.3281 22.8017 15.3279 22.802C14.9485 23.1816 14.4981 23.4828 14.0023 23.6884C13.5062 23.8941 12.9744 24 12.4373 24C11.9002 24 11.3684 23.8941 10.8723 23.6884C10.3765 23.4828 9.92605 23.1816 9.54671 22.8019C9.54647 22.8016 9.54623 22.8014 9.54599 22.8012L0.586425 13.8497C0.210962 13.4746 0 12.9656 0 12.4348V2ZM19.9753 12.4957C19.9755 12.4955 19.9751 12.4959 19.9753 12.4957C19.9911 12.4795 20 12.4577 20 12.4348C20 12.412 19.9911 12.3902 19.9753 12.374C19.9751 12.3738 19.9756 12.3742 19.9753 12.374L11.6035 4H4V11.6059L12.3764 19.9747C12.3844 19.9827 12.3939 19.9891 12.4044 19.9934C12.4148 19.9978 12.426 20 12.4373 20C12.4486 20 12.4598 19.9978 12.4702 19.9934C12.4807 19.9891 12.4902 19.9827 12.4983 19.9747L12.4991 19.9739L19.9753 12.4957Z" fill="black"/>
</svg>
