<svg width="24" height="24" viewBox="0 0 24 24" fill="none" xmlns="http://www.w3.org/2000/svg">
<path d="M20.4564 12.3757C22.5145 10.2292 22.5145 6.73895 20.4564 4.60989C18.3982 2.46337 15.0517 2.46337 12.9935 4.60989L11.9895 5.65697L10.9856 4.60989C8.92742 2.46337 5.58084 2.46337 3.53943 4.60989C2.53545 5.63951 2 7.03562 2 8.50153C2 9.96744 2.55219 11.3461 3.53943 12.3932L11.9895 21.2061L20.4564 12.3757ZM3.3219 8.50153C3.3219 7.4021 3.72349 6.37247 4.47647 5.60461C5.24618 4.80185 6.25016 4.40047 7.25413 4.40047C8.25811 4.40047 9.26208 4.80185 10.0318 5.60461L11.9895 7.62897L13.9473 5.58716C15.4867 3.98164 17.9799 3.98164 19.5026 5.58716C20.2389 6.35502 20.6572 7.38465 20.6572 8.48408C20.6572 9.58351 20.2556 10.6131 19.5026 11.381L11.9895 19.2341L4.47647 11.3985C3.74022 10.6131 3.3219 9.58351 3.3219 8.50153Z" fill="black"/>
</svg>
