<svg width="24" height="24" viewBox="0 0 24 24" fill="none" xmlns="http://www.w3.org/2000/svg">
<path d="M11.7812 21.9997H12H12.2188H12.6116V21.9793C17.8417 21.6619 22 17.3081 22 12C22 6.6915 17.8417 2.33776 12.6116 2.02075C12.4818 2.01284 12.3513 2.00854 12.2201 2.00592C12.147 2.00393 12.0738 2 12 2C11.9262 2 11.853 2.00393 11.7799 2.00592C11.6487 2.00854 11.5182 2.01284 11.3883 2.02075C6.15833 2.33776 2 6.6915 2 12C2 17.3081 6.15833 21.6619 11.3883 21.9793V21.9997H11.7812ZM13.806 20.5885C15.2692 19.1536 16.3327 17.6565 16.9882 16.1066H19.7531C18.5496 18.37 16.3844 20.0474 13.806 20.5885ZM20.7768 12C20.7768 13.0101 20.6031 13.9797 20.2876 14.8836H17.4179C17.6651 14.0047 17.789 13.1113 17.7817 12.2034C17.7731 11.1106 17.58 10.0768 17.2729 9.1161H20.2876C20.6031 10.0204 20.7768 10.9899 20.7768 12ZM19.7531 7.89311H16.805C15.9455 5.95469 14.6865 4.39919 13.7289 3.39535C16.3416 3.9193 18.5377 5.60698 19.7531 7.89311ZM12.6116 4.01224C13.4303 4.84471 14.5909 6.19883 15.4418 7.89306H12.6116V4.01224ZM12.6116 9.1161H15.9718C16.3238 10.078 16.5506 11.1208 16.5584 12.2201C16.565 13.1205 16.4223 14.0087 16.1379 14.8836H12.6116V9.1161ZM12.6116 16.1066H15.6422C14.9838 17.4571 13.974 18.772 12.6116 20.0425V16.1066ZM11.3883 14.8836H7.8621C7.57768 14.0087 7.43502 13.1205 7.44157 12.2201C7.44948 11.1208 7.67622 10.078 8.02817 9.1161H11.3883V14.8836H11.3883ZM11.3883 7.89311H8.55815C9.40906 6.19888 10.5697 4.8444 11.3883 4.01192V7.89311ZM10.2712 3.39535C9.31351 4.39919 8.05458 5.95469 7.19513 7.89311H4.24694C5.46228 5.60698 7.65846 3.9193 10.2712 3.39535ZM3.2233 12C3.2233 10.9899 3.39697 10.0203 3.71236 9.1161H6.72713C6.42002 10.0767 6.22722 11.1105 6.21832 12.2034C6.21109 13.1113 6.33499 14.0047 6.58217 14.8836H3.71236C3.39697 13.9797 3.2233 13.0101 3.2233 12ZM4.24689 16.1066H7.01187C7.66768 17.6565 8.73083 19.1536 10.1944 20.5885C7.61561 20.0474 5.45044 18.37 4.24689 16.1066ZM8.35776 16.1066H11.3883V20.0425C10.026 18.772 9.01625 17.4571 8.35776 16.1066Z" fill="black"/>
</svg>
