<svg width="24" height="24" viewBox="0 0 24 24" fill="none" xmlns="http://www.w3.org/2000/svg">
<path fill-rule="evenodd" clip-rule="evenodd" d="M11.003 9.49774C10.1751 9.49774 9.5036 10.1693 9.5036 10.9981V19.9996C9.5036 20.8285 10.1751 21.5 11.003 21.5H20.0006C20.8285 21.5 21.5 20.8285 21.5 19.9996V10.9981C21.5 10.1693 20.8285 9.49774 20.0006 9.49774H11.003ZM8.5036 10.9981C8.5036 9.6174 9.62243 8.49774 11.003 8.49774H20.0006C21.3812 8.49774 22.5 9.6174 22.5 10.9981V19.9996C22.5 21.3803 21.3812 22.5 20.0006 22.5H11.003C9.62243 22.5 8.5036 21.3803 8.5036 19.9996V10.9981Z" fill="black"/>
<path fill-rule="evenodd" clip-rule="evenodd" d="M3.99949 2.5C3.60187 2.5 3.22049 2.65802 2.93927 2.93937C2.65803 3.22072 2.5 3.60236 2.5 4.00035V13.0019C2.5 13.3999 2.65803 13.7815 2.93927 14.0629C3.22049 14.3442 3.60187 14.5023 3.99949 14.5023H4.99923C5.27538 14.5023 5.49923 14.7261 5.49923 15.0023C5.49923 15.2784 5.27538 15.5023 4.99923 15.5023H3.99949C3.33651 15.5023 2.70074 15.2388 2.23201 14.7698C1.76329 14.3009 1.5 13.665 1.5 13.0019V4.00035C1.5 3.33728 1.76329 2.70133 2.23201 2.23241C2.70074 1.76348 3.33651 1.5 3.99949 1.5H12.9972C13.6602 1.5 14.2959 1.76348 14.7647 2.23241C15.2334 2.70133 15.4967 3.33728 15.4967 4.00035V5.00052C15.4967 5.27666 15.2728 5.50052 14.9967 5.50052C14.7205 5.50052 14.4967 5.27666 14.4967 5.00052V4.00035C14.4967 3.60236 14.3386 3.22072 14.0574 2.93937C13.7762 2.65802 13.3948 2.5 12.9972 2.5H3.99949Z" fill="black"/>
</svg>
