<svg width="24" height="24" viewBox="0 0 24 24" fill="none" xmlns="http://www.w3.org/2000/svg">
<path d="M2.06396 1.79553H8.06396V7.79553H2.06396V1.79553ZM4.06396 3.79553V5.79553H6.06396V3.79553H4.06396ZM16.064 1.79553H22.064V7.79553H16.064V1.79553ZM18.064 3.79553V5.79553H20.064V3.79553H18.064ZM16.064 15.7955H22.064V21.7955H16.064V15.7955ZM18.064 17.7955V19.7955H20.064V17.7955H18.064ZM2.06396 15.7955H8.06396V21.7955H2.06396V15.7955ZM4.06396 17.7955V19.7955H6.06396V17.7955H4.06396ZM8.06396 3.79553H16.064V5.79553H8.06396V3.79553ZM8.06396 17.7955H16.064V19.7955H8.06396V17.7955ZM18.064 7.79553H20.064V15.7955H18.064V7.79553ZM4.06396 7.79553H6.06396V15.7955H4.06396V7.79553ZM9.06396 8.79553H15.064V10.7955H9.06396V8.79553ZM11.064 10.7955H13.064V14.7955H11.064V10.7955Z" fill="black"/>
</svg>
