<svg width="24" height="24" viewBox="0 0 24 24" fill="none" xmlns="http://www.w3.org/2000/svg">
<path d="M21.8438 18.8029L17.4271 14.3301C18.1458 13.0752 18.5208 11.6798 18.5208 10.2739C18.5208 5.71257 14.8125 2 10.2604 2C5.70833 2 2 5.71257 2 10.2739C2 14.8352 5.70833 18.5478 10.2604 18.5478C11.7135 18.5478 13.151 18.1468 14.4323 17.3814L18.8281 21.8386C18.9271 21.9375 19.0677 22 19.2083 22C19.349 22 19.4896 21.9427 19.5885 21.8386L21.8438 19.5579C22.0521 19.3444 22.0521 19.0112 21.8438 18.8029ZM10.2604 5.22312C13.0417 5.22312 15.3021 7.48815 15.3021 10.2739C15.3021 13.0596 13.0417 15.3247 10.2604 15.3247C7.47917 15.3247 5.21875 13.0596 5.21875 10.2739C5.21875 7.48815 7.47917 5.22312 10.2604 5.22312Z" fill="black"/>
</svg>
