<svg width="24" height="24" viewBox="0 0 24 24" fill="none" xmlns="http://www.w3.org/2000/svg">
<path d="M8.28961 20.251C15.8368 20.251 19.9648 13.9982 19.9648 8.57582C19.9648 8.39824 19.9648 8.22145 19.9528 8.04543C20.7559 7.46453 21.4491 6.74535 22 5.92145C21.2511 6.25328 20.4566 6.47086 19.6432 6.56703C20.4996 6.05438 21.141 5.24742 21.4472 4.29742C20.6418 4.77535 19.7605 5.11223 18.8416 5.29344C18.0657 4.4684 16.9821 4 15.8497 4C13.5965 4 11.7425 5.85406 11.7425 8.10719C11.7425 8.41977 11.7782 8.73137 11.8488 9.03582C8.55121 8.87055 5.47457 7.31078 3.39199 4.74863C2.30902 6.61293 2.86937 9.02895 4.66238 10.2262C4.00945 10.2069 3.37055 10.0307 2.8 9.71262V9.76461C2.80055 11.7105 4.18465 13.4018 6.09199 13.787C5.48793 13.9518 4.85398 13.9758 4.23922 13.8574C4.77543 15.5248 6.32168 16.6741 8.07281 16.707C6.62008 17.8487 4.82449 18.4689 2.9768 18.467C2.65031 18.4664 2.32414 18.4466 2 18.4078C3.87633 19.6119 6.06016 20.2508 8.28961 20.2478" fill="black"/>
</svg>
