<svg width="24" height="24" viewBox="0 0 24 24" fill="none" xmlns="http://www.w3.org/2000/svg">
<path d="M17 8.33361H14.6822L16.1189 6.89694C16.5533 6.4625 16.5533 5.76028 16.1189 5.32583C15.6844 4.89139 14.9822 4.89139 14.5478 5.32583L10.4289 9.44472L14.5478 13.5636C14.7644 13.7803 15.0489 13.8892 15.3333 13.8892C15.6178 13.8892 15.9022 13.7803 16.1189 13.5636C16.5533 13.1292 16.5533 12.4269 16.1189 11.9925L14.6822 10.5558H17C18.5322 10.5558 19.7778 12.0514 19.7778 13.8892C19.7778 15.7269 18.2822 17.2225 16.4444 17.2225H7.55556C5.71778 17.2225 4.22222 15.7269 4.22222 13.8892C4.22222 12.0514 5.71778 10.5558 7.55556 10.5558C8.17 10.5558 8.66667 10.0581 8.66667 9.44472C8.66667 8.83139 8.17 8.33361 7.55556 8.33361C4.49222 8.33361 2 10.8258 2 13.8892C2 16.9525 4.49222 19.4447 7.55556 19.4447H16.4444C19.5078 19.4447 22 16.9525 22 13.8892C22 10.8258 19.7567 8.33361 17 8.33361Z" fill="black"/>
</svg>
