<svg width="24" height="24" viewBox="0 0 24 24" fill="none" xmlns="http://www.w3.org/2000/svg">
<path d="M21.8073 7.805C21.7486 7.14969 21.4609 6.53601 20.9947 6.07169C20.5286 5.60737 19.9138 5.32209 19.2582 5.26594C17.6906 5.13586 15.3671 5 12.5001 5C9.04761 5 6.44147 5.14105 4.75659 5.27332C4.09797 5.32623 3.4793 5.61041 3.01004 6.07556C2.54079 6.54072 2.25119 7.15687 2.1925 7.815C2.08936 8.90021 2 10.3334 2 12.0423C2 13.7086 2.08862 15.1165 2.19128 16.1882C2.25056 16.8458 2.5404 17.4612 3.00956 17.9257C3.47873 18.3902 4.09701 18.6739 4.75512 18.7266C6.43994 18.8588 9.04657 19 12.5001 19C15.3671 19 17.6906 18.8641 19.2582 18.734C19.9138 18.6779 20.5286 18.3926 20.9947 17.9283C21.4609 17.464 21.7486 16.8503 21.8073 16.195C21.9105 15.1155 22 13.6919 22 12C22 10.3081 21.9105 8.88452 21.8073 7.805ZM9.77594 14.9388V9.06122L15.574 12L9.77594 14.9388Z" fill="black"/>
</svg>
