<svg width="24" height="24" viewBox="0 0 24 24" fill="none" xmlns="http://www.w3.org/2000/svg">
<path fill-rule="evenodd" clip-rule="evenodd" d="M11.8982 2.5C12.0472 2.5 12.188 2.56782 12.2795 2.68379L19.7964 12.2076C19.9321 12.3796 19.9321 12.6204 19.7964 12.7924L12.2795 22.3162C12.188 22.4322 12.0472 22.5 11.8982 22.5C11.7491 22.5 11.6084 22.4322 11.5169 22.3162L4 12.7924C3.86426 12.6204 3.86426 12.3796 4 12.2076L11.5169 2.68379C11.6084 2.56782 11.7491 2.5 11.8982 2.5ZM5.3982 13L8.3285 12.9762L9.34698 16L10.548 19.5376L5.3982 13ZM13.2484 19.5376L18.4272 12.9762H15.4679L13.2484 19.5376ZM15.4679 12.0238H18.4272L13.2484 5.4624L15.4679 12.0238ZM10.548 5.4624L5.36921 12.0238H8.3285L10.548 5.4624ZM9.34698 12.0238H14.4494L11.8982 4.48165L9.34698 12.0238ZM9.34698 12.9762H14.4494L12 20.5L9.34698 12.9762Z" fill="#00DF00"/>
</svg>
