<svg width="24" height="24" viewBox="0 0 24 24" fill="none" xmlns="http://www.w3.org/2000/svg">
<path fill-rule="evenodd" clip-rule="evenodd" d="M11.78 1.5C11.9343 1.5 12.0799 1.57121 12.1746 1.69298L19.9546 11.693C20.0951 11.8736 20.0951 12.1264 19.9546 12.307L12.1746 22.307C12.0799 22.4288 11.9343 22.5 11.78 22.5C11.6257 22.5 11.4801 22.4288 11.3854 22.307L3.60537 12.307C3.46488 12.1264 3.46488 11.8736 3.60537 11.693L11.3854 1.69298C11.4801 1.57121 11.6257 1.5 11.78 1.5ZM5.0225 12.5H8.08537L10.3825 19.3895L5.0225 12.5ZM13.1775 19.3895L18.5375 12.5H15.4746L13.1775 19.3895ZM15.4746 11.5H18.5375L13.1775 4.61052L15.4746 11.5ZM10.3825 4.61052L5.0225 11.5H8.08537L10.3825 4.61052ZM9.13949 11.5H14.4205L11.78 3.58073L9.13949 11.5ZM9.13949 12.5H14.4205L11.78 20.4193L9.13949 12.5Z" fill="black"/>
</svg>
