<svg width="32" height="32" viewBox="0 0 32 32" fill="none" xmlns="http://www.w3.org/2000/svg">
<path d="M7.02664 15.7832C7.02667 15.6211 7.05867 15.4605 7.12081 15.3108C7.18295 15.1611 7.274 15.0251 7.38874 14.9107C7.50347 14.7963 7.63963 14.7058 7.7894 14.6442C7.93917 14.5827 8.09959 14.5514 8.26146 14.5522L10.3087 14.5589C10.6351 14.5589 10.9481 14.6888 11.1789 14.92C11.4098 15.1512 11.5394 15.4649 11.5394 15.7919V23.5472C11.77 23.4788 12.0651 23.4057 12.3898 23.3292C12.6148 23.2761 12.8153 23.1485 12.9588 22.9671C13.1023 22.7856 13.1804 22.5609 13.1804 22.3293V12.7101C13.1804 12.383 13.3101 12.0694 13.5409 11.8381C13.7717 11.6069 14.0848 11.4769 14.4112 11.4769H16.4646C16.7911 11.4769 17.1041 11.6069 17.3349 11.8381C17.5657 12.0694 17.6954 12.383 17.6954 12.7101V21.6383C17.6954 21.6383 18.2091 21.43 18.7092 21.2185C18.895 21.1397 19.0536 21.0079 19.1651 20.8395C19.2767 20.671 19.3362 20.4734 19.3364 20.2713V9.62754C19.3364 9.30059 19.466 8.98701 19.6968 8.7558C19.9276 8.52458 20.2405 8.39465 20.5669 8.39459H22.6182C22.9444 8.3949 23.2571 8.52495 23.4877 8.75614C23.7182 8.98733 23.8477 9.30075 23.8477 9.62754V18.3923C25.6261 17.1012 27.4284 15.5482 28.8587 13.6809C29.0662 13.4099 29.2035 13.0916 29.2584 12.7544C29.3133 12.4173 29.284 12.0718 29.1732 11.7488C28.5111 9.84061 27.4587 8.09191 26.0833 6.61458C24.7078 5.13725 23.0397 3.96382 21.1857 3.16939C19.3316 2.37496 17.3324 1.97701 15.3159 2.00103C13.2995 2.02504 11.3103 2.47047 9.47562 3.30883C7.64091 4.14718 6.00111 5.36 4.66113 6.86966C3.32116 8.37933 2.31054 10.1526 1.69393 12.076C1.07731 13.9994 0.868299 16.0306 1.08025 18.0395C1.2922 20.0485 1.92046 21.991 2.92481 23.7428C3.09979 24.045 3.35723 24.2909 3.66688 24.4516C3.97653 24.6122 4.32553 24.6811 4.67287 24.65C5.0609 24.6157 5.54403 24.5674 6.11844 24.4999C6.36843 24.4714 6.59923 24.3518 6.76688 24.1638C6.93453 23.9759 7.02733 23.7327 7.02759 23.4807V15.7832" fill="white"/>
<path d="M6.98108 28.2219C9.14327 29.7977 11.6985 30.7435 14.3639 30.9548C17.0294 31.1661 19.7013 30.6345 22.0839 29.419C24.4666 28.2035 26.4671 26.3513 27.8642 24.0675C29.2613 21.7836 30.0005 19.1571 30 16.4785C30 16.1434 29.9845 15.8136 29.9622 15.4847C24.6667 23.3968 14.8889 27.0957 6.98108 28.2219" fill="white"/>
</svg>
