<svg width="139" height="185" viewBox="0 0 139 185" fill="none" xmlns="http://www.w3.org/2000/svg">
<path d="M5.71147 0C32.8695 0 60.0276 0 87.1857 0C88.7411 1.29911 90.3953 2.49956 91.8273 3.922C106.287 18.3109 120.672 32.782 135.181 47.1298C137.79 49.7116 139.008 52.4578 139 56.1742C138.91 95.8629 138.91 135.552 138.992 175.24C139 179.812 137.724 183.232 133.272 185C90.7492 185 48.2344 185 5.71147 185C1.25919 183.232 -0.00818996 179.812 3.97574e-05 175.24C0.0741073 120.077 0.0741073 64.9227 3.97574e-05 9.75978C-0.00818996 5.18822 1.26742 1.76778 5.71147 0Z" fill="#1C1C1C"/>
</svg>
