<svg width="32" height="32" viewBox="0 0 32 32" fill="none" xmlns="http://www.w3.org/2000/svg">
<path d="M2 15.8788C3.36299 13.2066 5.43864 10.9631 7.99756 9.39619C10.5565 7.82928 13.499 7 16.5 7C19.501 7 22.4435 7.82928 25.0024 9.39619C27.5614 10.9631 29.637 13.2066 31 15.8788C29.637 18.551 27.5614 20.7946 25.0024 22.3615C22.4435 23.9284 19.501 24.7577 16.5 24.7577C13.499 24.7577 10.5565 23.9284 7.99756 22.3615C5.43864 20.7946 3.36299 18.551 2 15.8788V15.8788ZM16.5 21.7941C18.0697 21.7941 19.575 21.1709 20.6849 20.0616C21.7948 18.9522 22.4184 17.4477 22.4184 15.8788C22.4184 14.31 21.7948 12.8054 20.6849 11.6961C19.575 10.5868 18.0697 9.96356 16.5 9.96356C14.9304 9.96356 13.425 10.5868 12.3151 11.6961C11.2052 12.8054 10.5816 14.31 10.5816 15.8788C10.5816 17.4477 11.2052 18.9522 12.3151 20.0616C13.425 21.1709 14.9304 21.7941 16.5 21.7941V21.7941ZM16.5 18.8365C15.7152 18.8365 14.9625 18.5249 14.4075 17.9702C13.8526 17.4155 13.5408 16.6633 13.5408 15.8788C13.5408 15.0944 13.8526 14.3421 14.4075 13.7875C14.9625 13.2328 15.7152 12.9212 16.5 12.9212C17.2848 12.9212 18.0375 13.2328 18.5925 13.7875C19.1474 14.3421 19.4592 15.0944 19.4592 15.8788C19.4592 16.6633 19.1474 17.4155 18.5925 17.9702C18.0375 18.5249 17.2848 18.8365 16.5 18.8365Z" fill="white"/>
</svg>
