<svg width="37" height="37" viewBox="0 0 37 37" fill="none" xmlns="http://www.w3.org/2000/svg">
<path d="M18.1562 36.2096C28.0348 36.2096 36.043 28.2014 36.043 18.3229C36.043 8.44431 28.0348 0.436157 18.1562 0.436157C8.27769 0.436157 0.269531 8.44431 0.269531 18.3229C0.269531 28.2014 8.27769 36.2096 18.1562 36.2096Z" fill="#00FF00"/>
<path d="M25.4405 19.1301C26.7462 18.5037 27.3122 17.5829 27.3122 16.1565V12.8886H22.55L22.5953 15.4471C22.5953 16.8735 22.0292 17.7942 20.7236 18.4206L15.7425 20.5338V15.8772L18.8972 15.4471V12.881H15.7425V6.64709L10.9878 7.50747V11.7414L13.101 12.1565V12.8886H10.9878H7.69721H7.41797V17.0169L10.9953 16.5338V27.9074H15.7425V23.6508L19.0406 22.1036L22.7915 27.8998H28.2028L23.116 20.1942L25.4405 19.1301Z" fill="black"/>
</svg>
