<svg width="32" height="32" viewBox="0 0 32 32" fill="none" xmlns="http://www.w3.org/2000/svg">
<path d="M18.0554 29.9604C18.061 29.9596 18.0675 29.9596 18.0731 29.9596C22.1098 29.367 25.4968 27.5926 28.0161 24.2952C31.7563 19.4004 31.993 12.8444 28.6544 7.59398C25.4532 2.56016 19.3457 0.0557882 13.3715 1.32738C7.42235 2.59412 3.00351 7.46706 2.09373 13.7603C2.07999 13.8582 2.03232 13.9503 2 14.0457C2 14.2066 2 14.3682 2 14.5291C2.06464 14.7175 2.06464 14.905 2 15.0934C2 15.711 2 16.3286 2 16.947C2.0404 16.9898 2.03959 17.0424 2.0404 17.0965C2.0404 17.1345 2.04201 17.1725 2.04282 17.2105C2.5979 20.5281 3.91006 23.469 6.35905 25.8683C8.70785 28.169 11.5487 29.4026 14.7241 29.9474C14.8323 29.9596 14.9406 29.9757 15.0473 30.0008C15.208 30.0008 15.3696 30.0008 15.5304 30.0008C15.7187 29.9361 15.9061 29.9361 16.0944 30.0008C16.4434 30.0008 16.7925 30.0008 17.1415 30.0008C17.3023 29.9369 17.4639 29.9369 17.6247 30.0008C17.678 30.0008 17.7322 30.0008 17.7855 30.0008C17.8671 29.9313 17.9649 29.9668 18.0554 29.9604ZM13.0346 9.90272C14.3694 11.0765 14.4429 14.458 13.2043 16.1523C11.8687 16.1523 10.5234 16.1523 9.04477 16.1523C10.4094 14.015 11.7192 11.9625 13.0346 9.90272ZM11.8056 22.6914C9.53118 22.4432 7.80291 19.8798 8.14468 17.8297C9.60793 17.8297 11.051 17.8297 12.5078 17.8297C12.7453 20.3632 14.6901 19.3649 16.0912 19.6502C16.0912 19.0609 16.0912 18.5492 16.0912 17.9599C15.3777 17.9599 14.6675 17.9599 13.7109 17.9599C16.8095 14.5962 15.6064 11.3198 13.8199 7.94967C14.6489 8.16712 15.3519 8.35224 16.0839 8.54383C16.2455 7.85509 15.8342 6.65948 17.0632 6.84703C18.2816 7.03215 17.5593 8.22452 17.7984 8.88982C19.4952 10.5575 21.903 11.9075 21.3309 14.7158C20.9948 16.3666 20.0511 18.0569 17.796 18.0391C17.796 18.5298 17.796 19.0342 17.796 19.7092C20.8098 19.6882 22.8596 16.8185 25.917 17.1499C25.917 17.3326 25.917 17.6972 25.917 18.1491C24.0595 18.6187 23.5924 20.474 22.5203 21.7674C21.8884 22.5297 21.1313 22.9315 20.1165 22.9056C17.346 22.8337 14.552 22.9905 11.8056 22.6914Z" fill="white"/>
</svg>
