<svg width="32" height="32" viewBox="0 0 32 32" fill="none" xmlns="http://www.w3.org/2000/svg">
<rect width="32" height="32" fill="#3A3A3A"/>
<path fill-rule="evenodd" clip-rule="evenodd" d="M10.8166 16.7403V19.7026H7.85399C7.03033 19.7026 6.37312 19.0396 6.37312 18.2217V13.7777C6.37312 12.954 7.03613 12.2968 7.85399 12.2968H12.2978V10.8156H7.86151C6.22147 10.8156 4.89195 12.1287 4.89195 13.7867V18.2127C4.89195 19.8536 6.21597 21.1838 7.86151 21.1838H12.2978V20.0729V16.7403V15.2591H7.85428V16.7403H10.8166ZM15.2601 12.2968V19.7026H13.7789V21.1838H18.2224V19.7026H16.7413V12.2968H18.2224V10.8156H13.7789V12.2968H15.2601ZM21.1848 15.2591V12.2968H27.1094V10.8156H19.7036V21.1838H21.1848V16.7403H25.6282V15.2591H21.1848Z" fill="black"/>
</svg>
