<svg width="87" height="86" viewBox="0 0 87 86" fill="none" xmlns="http://www.w3.org/2000/svg">
<path d="M56.0892 0.0488281C41.4484 0.0488281 29.1738 10.4009 26.4379 24.3762C23.8499 23.341 21.114 22.8234 18.3042 22.9713C8.24787 23.341 0.335938 31.9184 0.335938 42.2705C0.335938 52.4007 8.54365 60.6084 18.6739 60.6084C20.3746 60.6084 21.7056 59.2774 21.7056 57.5767C21.7056 55.876 20.3746 54.545 18.6739 54.545C11.945 54.545 6.39929 49.0732 6.39929 42.2705C6.39929 35.2458 11.8711 29.1825 18.5999 28.8867C21.7056 28.7388 24.5893 29.7001 27.0295 31.5487C27.9168 32.2142 29.0999 32.3621 30.1351 31.9184C31.1703 31.4747 31.8358 30.4395 31.9097 29.2564C32.4273 16.2424 43.0012 5.96429 56.0892 5.96429C69.4729 5.96429 80.3426 16.834 80.3426 30.2177C80.3426 30.5135 80.3426 30.8092 80.2687 31.105V31.6226C80.2687 31.8445 80.2687 31.9923 80.2687 32.2142C80.0468 44.5627 69.9166 54.545 57.4941 54.545C55.7934 54.545 54.4624 55.876 54.4624 57.5767C54.4624 59.2774 55.7934 60.6084 57.4941 60.6084C73.3919 60.6084 86.332 47.6683 86.332 31.7705C86.332 31.6966 86.332 31.6226 86.332 31.4747C86.332 31.0311 86.4059 30.6614 86.4059 30.2177C86.4059 13.5805 72.8004 0.0488281 56.0892 0.0488281Z" fill="#4A4A4A"/>
<path d="M41.521 51.0699C40.3379 49.8868 38.4154 49.8868 37.2323 51.0699L17.6373 70.6649C16.4542 71.848 16.4542 73.7705 17.6373 74.9536C18.8204 76.1367 20.7429 76.1367 21.926 74.9536L36.345 60.5347V82.9395C36.345 84.6402 37.676 85.9712 39.3767 85.9712C41.0773 85.9712 42.4083 84.6402 42.4083 82.9395V60.5347L56.7533 74.8797C57.3449 75.4712 58.0843 75.767 58.8977 75.767C59.6371 75.767 60.4505 75.4712 61.042 74.8797C62.2251 73.6966 62.2251 71.7741 61.042 70.591L41.521 51.0699Z" fill="#00FF00"/>
</svg>
