<svg width="12" height="12" viewBox="0 0 12 12" fill="none" xmlns="http://www.w3.org/2000/svg">
<path d="M5.86963 0.513672C2.83816 0.513672 0.382812 2.96902 0.382812 6.00049C0.382812 9.03195 2.83816 11.4873 5.86963 11.4873C8.90109 11.4873 11.3564 9.03195 11.3564 6.00049C11.3564 2.96902 8.90109 0.513672 5.86963 0.513672ZM5.86963 10.3899C3.44994 10.3899 1.48018 8.42017 1.48018 6.00049C1.48018 3.5808 3.44994 1.61103 5.86963 1.61103C8.28931 1.61103 10.2591 3.5808 10.2591 6.00049C10.2591 8.42017 8.28931 10.3899 5.86963 10.3899ZM4.81616 5.37773C4.84634 5.19941 4.90121 5.04029 4.98076 4.90038C5.06032 4.76047 5.17006 4.64799 5.30449 4.56294C5.43343 4.48338 5.59529 4.43949 5.79556 4.43674C5.92724 4.43949 6.04795 4.46144 6.1522 4.50807C6.26468 4.55745 6.35795 4.6233 6.43751 4.7056C6.51707 4.7879 6.57743 4.88666 6.62132 4.9964C6.66522 5.10614 6.68991 5.2241 6.69539 5.34756H7.67753C7.6693 5.08968 7.61718 4.85374 7.52665 4.63976C7.43611 4.42577 7.30443 4.24196 7.13983 4.08559C6.97522 3.92921 6.7777 3.81125 6.54725 3.7262C6.3168 3.64116 6.06167 3.59726 5.78184 3.59726C5.4252 3.59726 5.11519 3.65762 4.85182 3.78107C4.58846 3.90452 4.36898 4.07187 4.19341 4.28586C4.01783 4.49984 3.88614 4.74675 3.8011 5.02932C3.71605 5.31189 3.6749 5.61092 3.6749 5.92642V6.0773C3.6749 6.39554 3.7188 6.69457 3.80384 6.97714C3.88889 7.25971 4.02057 7.50662 4.19615 7.71786C4.37173 7.9291 4.5912 8.09645 4.85731 8.2199C5.12342 8.34336 5.43343 8.40371 5.79007 8.40371C6.04795 8.40371 6.28937 8.36256 6.51433 8.27752C6.73929 8.19247 6.93681 8.07725 7.1069 7.9291C7.277 7.78096 7.41417 7.61087 7.51293 7.41334C7.61169 7.21582 7.6693 7.00732 7.67753 6.78236H6.69539C6.68991 6.89758 6.66247 7.00183 6.61309 7.10059C6.56371 7.19936 6.49787 7.28166 6.41557 7.35024C6.33326 7.41883 6.23725 7.4737 6.12751 7.5121C6.02326 7.54777 5.91352 7.56697 5.79556 7.56697C5.59803 7.56149 5.43617 7.52034 5.30449 7.43803C5.16732 7.35024 5.05758 7.23776 4.97802 7.09785C4.89846 6.95794 4.84359 6.79882 4.81342 6.61775C4.78324 6.43669 4.77226 6.26111 4.77226 6.0773V5.92642C4.77226 5.73986 4.78598 5.55606 4.81616 5.37773Z" fill="white"/>
</svg>
