<svg width="94" height="34" viewBox="0 0 94 34" fill="none" xmlns="http://www.w3.org/2000/svg">
<path d="M1.3772 33.2842H3.26024V30.695L7.02633 30.4597V28.7885L3.26024 29.0238V26.6347H7.29701V24.9871H1.3772V33.2842Z" fill="#E2DBD6"/>
<path d="M8.5917 33.2842H10.4747V30.3655H13.723V33.2842H15.606V30.6362C15.606 29.9889 15.253 29.6358 14.6057 29.6358H13.3935V29.1651C14.3938 29.0474 15.5001 28.6708 15.5001 27.3056C15.5001 25.4461 13.7818 24.9871 11.8046 24.9871H8.5917V33.2842ZM10.4747 28.7179V26.6347H11.8046C12.9227 26.6347 13.6171 26.6347 13.6171 27.6822C13.6171 28.7179 12.9227 28.7179 11.8046 28.7179H10.4747Z" fill="#E2DBD6"/>
<path d="M17.1394 33.2842H23.0592V31.6366H19.0224V29.9536H22.4708V28.3059H19.0224V26.6347H23.0592V24.9871H17.1394V33.2842Z" fill="#E2DBD6"/>
<path d="M24.4688 33.2842H30.3886V31.6366H26.3519V29.9536H29.8002V28.3059H26.3519V26.6347H30.3886V24.9871H24.4688V33.2842Z" fill="#E2DBD6"/>
<path d="M35.5648 33.2842H37.4479V26.6347L37.0948 25.4578H37.5655L38.8954 33.2842H42.5438L43.8737 25.4578H44.3445L43.9914 26.6347V33.2842H45.8745V24.9871H42.1672L40.955 32.8135H40.4843L39.272 24.9871H35.5648V33.2842Z" fill="#E2DBD6"/>
<path d="M52.9425 26.6347V24.9871H47.2934V26.6347H49.1764V31.6366H47.2934V33.2842H52.9425V31.6366H51.0595V26.6347H52.9425Z" fill="#E2DBD6"/>
<path d="M54.3612 33.2842H56.2443V26.6347L55.8912 25.4578H56.3619L58.8687 33.2842H62.576V24.9871H60.6929V31.6366L61.046 32.8135H60.5753L58.0685 24.9871H54.3612V33.2842Z" fill="#E2DBD6"/>
<path d="M71.0712 24.9871H63.7626V26.6347H66.4813V33.2842H68.3643V26.6347H71.0712V24.9871Z" fill="#E2DBD6"/>
<path d="M76.0134 29.1298C76.0134 31.5542 77.6376 33.4019 80.2738 33.4019C82.5923 33.4019 84.1223 32.1309 84.3694 30.0713H82.4864C82.2981 31.1658 81.4272 31.7543 80.2974 31.7543C78.8498 31.7543 77.8965 30.848 77.8965 29.1298C77.8965 27.4233 78.8498 26.517 80.2974 26.517C81.4272 26.517 82.2981 27.0937 82.4864 28.1882H84.3694C84.1223 26.1404 82.5923 24.8694 80.2738 24.8694C77.6376 24.8694 76.0134 26.7171 76.0134 29.1298Z" fill="#E2DBD6"/>
<path d="M85.5381 29.1298C85.5381 31.5542 87.1387 33.4019 89.7749 33.4019C92.3994 33.4019 94 31.5542 94 29.1298C94 26.7171 92.3994 24.8694 89.7749 24.8694C87.1387 24.8694 85.5381 26.7171 85.5381 29.1298ZM87.4211 29.1298C87.4211 27.541 88.2096 26.517 89.7749 26.517C91.3402 26.517 92.117 27.541 92.117 29.1298C92.117 30.7304 91.3402 31.7543 89.7749 31.7543C88.2096 31.7543 87.4211 30.7304 87.4211 29.1298Z" fill="#E2DBD6"/>
<rect width="3.00304" height="3.00304" rx="1.50152" transform="matrix(-1 0 0 1 3.67407 0.000488281)" fill="#6A6A6A"/>
<rect width="3.00304" height="3.00304" rx="1.50152" transform="matrix(-1 0 0 1 3.67407 6.46851)" fill="#6A6A6A"/>
<rect width="3.00304" height="3.00304" rx="1.50152" transform="matrix(-1 0 0 1 10.1414 12.937)" fill="#6A6A6A"/>
<rect width="3.00304" height="3.00304" rx="1.50152" transform="matrix(-1 0 0 1 10.1414 0.000488281)" fill="#6A6A6A"/>
<rect width="3.00304" height="3.00304" rx="1.50152" transform="matrix(-1 0 0 1 23.0791 0.000488281)" fill="#6A6A6A"/>
<rect width="3.00304" height="3.00304" rx="1.50152" transform="matrix(-1 0 0 1 23.0791 6.46802)" fill="#6A6A6A"/>
<rect width="3.00304" height="3.00304" rx="1.50152" transform="matrix(-1 0 0 1 23.0791 12.937)" fill="#6A6A6A"/>
<rect width="3.00304" height="3.00304" rx="1.50152" transform="matrix(-1 0 0 1 29.5468 6.46802)" fill="#6A6A6A"/>
<rect width="3.00304" height="3.00304" rx="1.50152" transform="matrix(-1 0 0 1 36.014 0.000488281)" fill="#6A6A6A"/>
<rect width="3.00304" height="3.00304" rx="1.50152" transform="matrix(-1 0 0 1 42.482 6.46851)" fill="#6A6A6A"/>
<rect width="3.00304" height="3.00304" rx="1.50152" transform="matrix(-1 0 0 1 36.0143 12.937)" fill="#6A6A6A"/>
<rect width="3.00304" height="3.00304" rx="1.50152" transform="matrix(-1 0 0 1 16.609 6.46802)" fill="#6A6A6A"/>
<rect width="3.00304" height="3.00304" rx="1.50152" transform="matrix(1 0 0 -1 88.723 15.9395)" fill="#6A6A6A"/>
<rect width="3.00304" height="3.00304" rx="1.50152" transform="matrix(1 0 0 -1 88.723 9.47144)" fill="#6A6A6A"/>
<rect width="3.00304" height="3.00304" rx="1.50152" transform="matrix(1 0 0 -1 82.2557 3.00293)" fill="#6A6A6A"/>
<rect width="3.00304" height="3.00304" rx="1.50152" transform="matrix(1 0 0 -1 82.2557 15.9395)" fill="#6A6A6A"/>
<rect width="3.00304" height="3.00304" rx="1.50152" transform="matrix(1 0 0 -1 69.318 15.9395)" fill="#6A6A6A"/>
<rect width="3.00304" height="3.00304" rx="1.50152" transform="matrix(1 0 0 -1 69.318 9.47192)" fill="#6A6A6A"/>
<rect width="3.00304" height="3.00304" rx="1.50152" transform="matrix(1 0 0 -1 69.318 3.00293)" fill="#6A6A6A"/>
<rect width="3.00304" height="3.00304" rx="1.50152" transform="matrix(1 0 0 -1 62.8503 9.47192)" fill="#6A6A6A"/>
<rect width="3.00304" height="3.00304" rx="1.50152" transform="matrix(1 0 0 -1 56.3831 15.9395)" fill="#6A6A6A"/>
<rect width="3.00304" height="3.00304" rx="1.50152" transform="matrix(1 0 0 -1 49.9151 9.47144)" fill="#6A6A6A"/>
<rect width="3.00304" height="3.00304" rx="1.50152" transform="matrix(1 0 0 -1 56.3831 3.00342)" fill="#6A6A6A"/>
<rect width="3.00304" height="3.00304" rx="1.50152" transform="matrix(1 0 0 -1 75.788 9.47192)" fill="#6A6A6A"/>
</svg>
