<svg width="45" height="46" viewBox="0 0 45 46" fill="none" xmlns="http://www.w3.org/2000/svg">
<path d="M28.8704 6.78688L29.0084 6.91886L29.1992 6.92532L37.9253 7.22044L38.2143 16.1508L38.2203 16.3358L38.3453 16.4723L44.3221 23L38.3453 29.5277L38.2203 29.6642L38.2143 29.8492L37.9253 38.7796L29.1992 39.0747L29.0084 39.0811L28.8704 39.2131L22.5 45.308L16.1296 39.2131L15.9916 39.0811L15.8008 39.0747L7.0747 38.7796L6.78565 29.8492L6.77967 29.6642L6.65469 29.5277L0.677924 23L6.65469 16.4723L6.77967 16.3358L6.78565 16.1508L7.0747 7.22044L15.8008 6.92532L15.9916 6.91886L16.1296 6.78688L22.5 0.691983L28.8704 6.78688Z" fill="black" stroke="#00FF00"/>
<path d="M22 9L26.7143 23.5L22 38M22 9L17.2857 23.5L22 38M22 9L33 23.5M22 9L11 23.5M22 38L33 23.5M22 38L11 23.5M33 23.5H11" stroke="#00FF00" stroke-linecap="round" stroke-linejoin="round"/>
</svg>
