<svg width="14" height="15" viewBox="0 0 14 15" fill="none" xmlns="http://www.w3.org/2000/svg">
<path d="M11.2793 4.06067C11.2793 4.16351 11.259 4.26535 11.2197 4.36035C11.1803 4.45537 11.1226 4.5417 11.0499 4.61442C10.9772 4.68714 10.8909 4.74482 10.7958 4.78418C10.7008 4.82354 10.599 4.84379 10.4962 4.84379C10.3933 4.84379 10.2915 4.82354 10.1965 4.78418C10.1015 4.74482 10.0151 4.68714 9.9424 4.61442C9.86967 4.5417 9.81199 4.45537 9.77267 4.36035C9.73326 4.26535 9.71305 4.16351 9.71305 4.06067C9.71305 3.85297 9.7955 3.65378 9.9424 3.50692C10.0893 3.36005 10.2885 3.27755 10.4962 3.27755C10.7039 3.27755 10.903 3.36005 11.0499 3.50692C11.1968 3.65378 11.2793 3.85297 11.2793 4.06067ZM13.7657 7.59571V7.60586L13.7208 10.4441C13.7094 11.4676 13.2977 12.4461 12.574 13.1699C11.8503 13.8939 10.8719 14.3057 9.84836 14.3174L7.00001 14.3614H6.98986L4.15168 14.3165C3.1281 14.3051 2.14965 13.8934 1.42576 13.1698C0.70185 12.446 0.290001 11.4676 0.278352 10.4441L0.234375 7.59571V7.58556L0.279197 4.74738C0.290623 3.7238 0.702256 2.74535 1.426 2.02146C2.14975 1.29755 3.1281 0.885702 4.15168 0.874056L7.00001 0.830078H7.01016L9.84836 0.874902C10.8719 0.886328 11.8504 1.29796 12.5742 2.0217C13.2982 2.74545 13.71 3.7238 13.7217 4.74738L13.7657 7.59571ZM12.5056 7.59571L12.4616 4.76683C12.4536 4.07106 12.1737 3.40601 11.6818 2.91399C11.1897 2.42197 10.5247 2.14206 9.82891 2.13416L7.00001 2.09018L4.17113 2.13416C3.47535 2.14206 2.81031 2.42197 2.31829 2.91399C1.82627 3.40601 1.54636 4.07106 1.53845 4.76683L1.49448 7.59571L1.53845 10.4246C1.54636 11.1204 1.82627 11.7854 2.31829 12.2775C2.81031 12.7695 3.47535 13.0493 4.17113 13.0573L7.00001 13.1013L9.82891 13.0573C10.5247 13.0493 11.1897 12.7695 11.6818 12.2775C12.1737 11.7854 12.4536 11.1204 12.4616 10.4246L12.5056 7.59571ZM10.4742 7.59571C10.4742 8.51712 10.1082 9.40079 9.45663 10.0523C8.8051 10.7039 7.92141 11.0699 7.00001 11.0699C6.07861 11.0699 5.19494 10.7039 4.54341 10.0523C3.89188 9.40079 3.52586 8.51712 3.52586 7.59571C3.52586 6.67431 3.89188 5.79064 4.54341 5.13911C5.19494 4.48758 6.07861 4.12156 7.00001 4.12156C7.92141 4.12156 8.8051 4.48758 9.45663 5.13911C10.1082 5.79064 10.4742 6.67431 10.4742 7.59571ZM9.21408 7.59571C9.21408 7.00851 8.98084 6.44535 8.5656 6.03014C8.15036 5.61492 7.58721 5.38166 7.00001 5.38166C6.41281 5.38166 5.84965 5.61492 5.43444 6.03014C5.01922 6.44535 4.78596 7.00851 4.78596 7.59571C4.78596 8.18291 5.01922 8.74605 5.43444 9.16129C5.84965 9.57653 6.41281 9.80978 7.00001 9.80978C7.58721 9.80978 8.15036 9.57653 8.5656 9.16129C8.98084 8.74605 9.21408 8.18291 9.21408 7.59571Z" fill="white"/>
</svg>
