<svg width="101" height="30" viewBox="0 0 101 30" fill="none" xmlns="http://www.w3.org/2000/svg">
<path d="M52.5087 5.18359H46.9653L39.977 11.1059V5.18359H36.1866V21.8846H39.977V15.986L46.9653 21.8846H52.5087L42.4407 13.546L52.5087 5.18359Z" fill="#00FF00"/>
<path d="M53.6881 15.678C53.6881 19.8473 56.2703 22.1215 61.2214 22.1215C66.1725 22.1215 68.7783 19.8473 68.7783 15.678V5.18359H64.988V13.9961C64.988 16.9809 64.7037 18.805 61.2214 18.805C57.739 18.805 57.4784 16.9809 57.4784 13.9961V5.18359H53.6881V15.678Z" fill="#00FF00"/>
<path d="M72.9484 22.1215L82.8269 21.8846V18.5681L74.7014 18.805V5.18359H70.9111V20.1316C70.9111 21.4345 71.6455 22.1452 72.9484 22.1215Z" fill="#00FF00"/>
<path d="M94.9286 5.18359H80.2175V8.50011H85.6898V21.8846H89.4801V8.50011H94.9286V5.18359Z" fill="#00FF00"/>
<rect x="10.6631" y="10.6642" width="7.96742" height="7.96742" rx="3.98371" fill="#8E8E8E"/>
<rect x="18.6312" y="7.71045" width="2.95364" height="2.95364" rx="1.47682" fill="#8E8E8E"/>
<rect x="7.70959" y="7.71045" width="2.95364" height="2.95364" rx="1.47682" fill="#8E8E8E"/>
<rect x="18.6312" y="18.6312" width="2.95364" height="2.95364" rx="1.47682" fill="#8E8E8E"/>
<rect x="7.70959" y="18.6312" width="2.95364" height="2.95364" rx="1.47682" fill="#8E8E8E"/>
<path d="M14.6475 19.4238L17.0587 26.8274H12.2363L14.6475 19.4238Z" fill="#8E8E8E"/>
<path d="M14.6475 9.87146L12.2363 2.46786L17.0587 2.46786L14.6475 9.87146Z" fill="#8E8E8E"/>
<path d="M9.87146 14.6475L2.46786 17.0587L2.46786 12.2363L9.87146 14.6475Z" fill="#8E8E8E"/>
<path d="M19.4236 14.6475L26.8272 12.2363L26.8272 17.0587L19.4236 14.6475Z" fill="#8E8E8E"/>
<path d="M22.3653 28.2549L28.256 28.2549L28.256 22.3642" stroke="#C4C4C4"/>
<path d="M6.92959 1.04004L1.03894 1.04004L1.03894 6.93069" stroke="#C4C4C4"/>
<path d="M37.7097 1.04004L31.8191 1.04004L31.8191 6.93069" stroke="#C4C4C4"/>
<path d="M94.1094 28.2556L100 28.2556L100 22.365" stroke="#C4C4C4"/>
<path d="M1.03894 22.3642L1.03894 28.2549L6.92959 28.2549" stroke="#C4C4C4"/>
<path d="M31.8191 22.3642L31.8191 28.2549L37.7097 28.2549" stroke="#C4C4C4"/>
<path d="M100 6.93032L100 1.03967L94.1094 1.03967" stroke="#C4C4C4"/>
<path d="M28.256 6.93069L28.256 1.04004L22.3653 1.04004" stroke="#C4C4C4"/>
</svg>
