<svg width="203" height="25" viewBox="0 0 203 25" fill="none" xmlns="http://www.w3.org/2000/svg">
<rect y="4.89219" width="4.89225" height="4.89225" fill="#00FF00"/>
<rect x="9.78711" y="4.89219" width="4.89225" height="4.89225" fill="#00FF00"/>
<rect y="14.6766" width="4.89225" height="4.89225" fill="#00FF00"/>
<rect x="4.89355" y="19.5688" width="4.89225" height="4.89225" fill="#00FF00"/>
<rect x="14.678" y="19.5688" width="4.89225" height="4.89225" fill="#00FF00"/>
<rect x="19.5715" y="19.5688" width="4.89225" height="4.89225" fill="#00FF00"/>
<rect x="24.4623" y="19.5688" width="4.89225" height="4.89225" fill="#00FF00"/>
<rect x="34.2494" y="19.5688" width="4.89225" height="4.89225" fill="#00FF00"/>
<rect x="19.5715" y="14.6766" width="4.89225" height="4.89225" fill="#00FF00"/>
<rect x="24.4623" y="9.78439" width="4.89225" height="4.89225" fill="#00FF00"/>
<rect x="29.3558" y="14.6766" width="4.89225" height="4.89225" fill="#00FF00"/>
<rect x="29.3558" y="4.89219" width="4.89225" height="4.89225" fill="#00FF00"/>
<rect x="9.78711" y="14.6766" width="4.89225" height="4.89225" fill="#00FF00"/>
<rect x="4.89355" width="4.89225" height="4.89225" fill="#00FF00"/>
<rect x="46.2651" width="33.5134" height="3.22489" fill="#00FF00"/>
<rect x="79.7781" y="24.461" width="33.5134" height="3.22489" transform="rotate(-180 79.7781 24.461)" fill="#00FF00"/>
<rect x="46.2651" y="4.89219" width="33.5134" height="1.20933" fill="#00FF00"/>
<rect x="79.7781" y="19.5688" width="33.5134" height="1.20933" transform="rotate(-180 79.7781 19.5688)" fill="#00FF00"/>
<rect x="46.2651" y="7.76859" width="33.5134" height="0.806223" fill="#00FF00"/>
<rect x="79.7781" y="16.6924" width="33.5134" height="0.806223" transform="rotate(-180 79.7781 16.6924)" fill="#00FF00"/>
<rect x="79.7781" y="14.2729" width="33.5134" height="4.43433" transform="rotate(-180 79.7781 14.2729)" fill="#00FF00"/>
<rect x="4.89355" y="9.78439" width="4.89225" height="4.89225" fill="#00FF00"/>
<path d="M95.5597 11.0492H96.5314L92.9503 5.4571L96.462 1.38757H95.4626L92.3673 4.97263L90.8405 6.77208H90.8127V1.38757H89.9799V11.0492H90.8127V7.8656L92.3812 6.06615L95.5597 11.0492Z" fill="#E2DBD6"/>
<path d="M96.9562 1.38757V7.04892C96.9562 9.98341 97.4698 11.2153 99.9127 11.2153C102.356 11.2153 102.869 9.98341 102.869 7.04892V1.38757H102.036V7.21503C102.036 9.47126 101.787 10.4956 99.9127 10.4956C98.0389 10.4956 97.789 9.47126 97.789 7.21503V1.38757H96.9562Z" fill="#E2DBD6"/>
<path d="M110.206 11.0492V10.3295H105.459V1.38757H104.627V11.0492H110.206Z" fill="#E2DBD6"/>
<path d="M117.793 2.10735V1.38757H110.326V2.10735H113.643V11.0492H114.476V2.10735H117.793Z" fill="#E2DBD6"/>
<path d="M123.076 7.24271V6.42604H119.19V7.24271H123.076Z" fill="#E2DBD6"/>
<path d="M125.43 11.0492H128.068C130.413 11.0492 131.51 9.40205 131.51 6.21841C131.51 3.03476 130.413 1.38757 128.068 1.38757H125.43V11.0492ZM126.263 10.3295V2.10735H128.04C129.789 2.10735 130.622 3.4085 130.622 5.59552V6.84129C130.622 9.02832 129.789 10.3295 128.04 10.3295H126.263Z" fill="#E2DBD6"/>
<path d="M135.613 11.2153C137.209 11.2153 138.028 10.2741 138.472 9.16674L137.764 8.84837C137.404 9.78963 136.793 10.4956 135.613 10.4956C133.892 10.4956 133.031 9.16674 133.031 6.86898V5.56784C133.031 3.27008 133.892 1.94125 135.613 1.94125C136.793 1.94125 137.404 2.64719 137.764 3.58844L138.472 3.27008C138.028 2.16272 137.209 1.22147 135.613 1.22147C133.309 1.22147 132.143 2.8825 132.143 6.21841C132.143 9.55431 133.309 11.2153 135.613 11.2153Z" fill="#E2DBD6"/>
<path d="M144.13 11.0492H145.31V1.38757H144.546V9.92805H144.477L140.577 1.38757H139.397V11.0492H140.16V2.4534H140.23L144.13 11.0492Z" fill="#E2DBD6"/>
<path d="M153.161 2.10735V1.38757H145.693V2.10735H149.01V11.0492H149.843V2.10735H153.161Z" fill="#E2DBD6"/>
<path d="M154.515 6.79977H156.32L158.874 11.0492H159.804L157.18 6.75824H157.389C158.943 6.66135 159.776 5.66473 159.776 4.10059C159.776 2.42572 158.86 1.38757 157.153 1.38757H153.683V11.0492H154.515V6.79977ZM154.515 6.09383V2.10735H157.139C158.291 2.10735 158.901 2.81329 158.901 3.76839V4.4328C158.901 5.38789 158.291 6.09383 157.139 6.09383H154.515Z" fill="#E2DBD6"/>
<path d="M166.794 11.0492V10.3295H162.047V1.38757H161.214V11.0492H166.794Z" fill="#E2DBD6"/>
<path d="M174.145 10.3295H168.052L173.881 2.13504V1.38757H167.413V2.10735H172.965L167.149 10.3018V11.0492H174.145V10.3295Z" fill="#E2DBD6"/>
<path d="M174.945 11.0492H177.582C179.927 11.0492 181.024 9.40205 181.024 6.21841C181.024 3.03476 179.927 1.38757 177.582 1.38757H174.945V11.0492ZM175.777 10.3295V2.10735H177.554C179.303 2.10735 180.136 3.4085 180.136 5.59552V6.84129C180.136 9.02832 179.303 10.3295 177.554 10.3295H175.777Z" fill="#E2DBD6"/>
<path d="M190.093 6.46479H186.837L188.669 4.76224C189.385 4.10613 189.835 3.47494 189.835 2.65273C189.835 1.66441 189.218 1 188.111 1C187.037 1 186.504 1.62289 186.287 2.32883L186.728 2.48662C186.928 1.84713 187.328 1.43187 188.103 1.43187C188.894 1.43187 189.31 1.89696 189.31 2.6112V2.769C189.31 3.37528 188.935 3.91511 188.369 4.44664L186.312 6.39005V6.89666H190.093V6.46479Z" fill="#E2DBD6"/>
<path d="M192.413 6.99632C193.754 6.99632 194.395 5.98309 194.395 3.99816C194.395 2.01323 193.754 1 192.413 1C191.072 1 190.431 2.01323 190.431 3.99816C190.431 5.98309 191.072 6.99632 192.413 6.99632ZM192.413 6.56446C191.414 6.56446 190.964 5.76716 190.964 4.3885V3.60782C190.964 2.22916 191.414 1.43187 192.413 1.43187C193.413 1.43187 193.862 2.22916 193.862 3.60782V4.3885C193.862 5.76716 193.413 6.56446 192.413 6.56446ZM192.413 4.3802C192.705 4.3802 192.813 4.23901 192.813 4.0646V3.93172C192.813 3.75731 192.705 3.61612 192.413 3.61612C192.122 3.61612 192.013 3.75731 192.013 3.93172V4.0646C192.013 4.23901 192.122 4.3802 192.413 4.3802Z" fill="#E2DBD6"/>
<path d="M198.581 6.46479H195.325L197.157 4.76224C197.873 4.10613 198.323 3.47494 198.323 2.65273C198.323 1.66441 197.707 1 196.599 1C195.525 1 194.992 1.62289 194.775 2.32883L195.216 2.48662C195.416 1.84713 195.816 1.43187 196.591 1.43187C197.382 1.43187 197.798 1.89696 197.798 2.6112V2.769C197.798 3.37528 197.423 3.91511 196.857 4.44664L194.8 6.39005V6.89666H198.581V6.46479Z" fill="#E2DBD6"/>
<path d="M203 6.89666V6.46479H201.376V1.09966H200.618L198.961 2.56967L199.244 2.88527L200.843 1.46509H200.885V6.46479H199.152V6.89666H203Z" fill="#E2DBD6"/>
<path d="M92.4062 23.9003V22.6878H93.3139V22.2808H92.4062V18.1033H91.7066L89 22.2476V22.6878H91.9315V23.9003H92.4062ZM91.9065 18.5269H91.9315V22.2808H89.4497L91.9065 18.5269Z" fill="#E2DBD6"/>
<path d="M97.5164 23.9003V23.4685H95.8924V18.1033H95.1345L93.4773 19.5733L93.7604 19.8889L95.3594 18.4688H95.401V23.4685H93.6688V23.9003H97.5164Z" fill="#E2DBD6"/>
<path d="M99.6618 20.7278C100.428 20.7278 101.028 20.1381 101.028 19.3657C101.028 18.585 100.428 18.0037 99.6618 18.0037C98.8956 18.0037 98.296 18.585 98.296 19.3657C98.296 20.1381 98.8956 20.7278 99.6618 20.7278ZM99.6618 20.3457C99.0954 20.3457 98.7207 19.9139 98.7207 19.3657C98.7207 18.8176 99.0954 18.3857 99.6618 18.3857C100.228 18.3857 100.603 18.8176 100.603 19.3657C100.603 19.9139 100.228 20.3457 99.6618 20.3457Z" fill="#E2DBD6"/>
<path d="M105.83 23.4685H102.573L104.406 21.7659C105.122 21.1098 105.571 20.4786 105.571 19.6564C105.571 18.6681 104.955 18.0037 103.848 18.0037C102.773 18.0037 102.24 18.6266 102.024 19.3325L102.465 19.4903C102.665 18.8508 103.065 18.4355 103.839 18.4355C104.63 18.4355 105.047 18.9006 105.047 19.6149V19.7727C105.047 20.379 104.672 20.9188 104.106 21.4503L102.049 23.3937V23.9003H105.83V23.4685Z" fill="#E2DBD6"/>
<path d="M109.382 23.9003V22.6878H110.29V22.2808H109.382V18.1033H108.683L105.976 22.2476V22.6878H108.908V23.9003H109.382ZM108.883 18.5269H108.908V22.2808H106.426L108.883 18.5269Z" fill="#E2DBD6"/>
<path d="M112.627 19.9637V17.7545H112.161V19.9637H112.627Z" fill="#E2DBD6"/>
<path d="M118.737 23.9003V23.4685H117.113V18.1033H116.355L114.698 19.5733L114.981 19.8889L116.58 18.4688H116.621V23.4685H114.889V23.9003H118.737Z" fill="#E2DBD6"/>
<path d="M122.806 23.4685H119.55L121.382 21.7659C122.098 21.1098 122.548 20.4786 122.548 19.6564C122.548 18.6681 121.931 18.0037 120.824 18.0037C119.749 18.0037 119.216 18.6266 119 19.3325L119.441 19.4903C119.641 18.8508 120.041 18.4355 120.815 18.4355C121.607 18.4355 122.023 18.9006 122.023 19.6149V19.7727C122.023 20.379 121.648 20.9188 121.082 21.4503L119.025 23.3937V23.9003H122.806V23.4685Z" fill="#E2DBD6"/>
<path d="M125.126 23.9585C125.476 23.9585 125.609 23.8007 125.609 23.5681V23.4519C125.609 23.2276 125.476 23.0615 125.126 23.0615C124.776 23.0615 124.643 23.2276 124.643 23.4519V23.5681C124.643 23.8007 124.776 23.9585 125.126 23.9585Z" fill="#E2DBD6"/>
<path d="M131.294 23.4685H128.038L129.87 21.7659C130.586 21.1098 131.036 20.4786 131.036 19.6564C131.036 18.6681 130.42 18.0037 129.312 18.0037C128.238 18.0037 127.705 18.6266 127.488 19.3325L127.929 19.4903C128.129 18.8508 128.529 18.4355 129.304 18.4355C130.095 18.4355 130.511 18.9006 130.511 19.6149V19.7727C130.511 20.379 130.136 20.9188 129.57 21.4503L127.513 23.3937V23.9003H131.294V23.4685Z" fill="#E2DBD6"/>
<path d="M134.514 19.9637V17.7545H134.047V19.9637H134.514ZM133.181 19.9637V17.7545H132.715V19.9637H133.181Z" fill="#E2DBD6"/>
<path d="M138.924 23.9003H139.632V18.1033H139.174V23.2276H139.133L136.792 18.1033H136.084V23.9003H136.543V18.7428H136.584L138.924 23.9003Z" fill="#E2DBD6"/>
<path d="M150.599 24C151.74 24 152.473 23.2442 152.473 22.123C152.473 21.0351 151.765 20.354 150.724 20.354C150.016 20.354 149.541 20.6862 149.258 21.2012L149.225 21.1929C149.508 19.8308 150.224 18.9837 151.523 18.1033H150.874C149.791 18.7844 148.7 20.0883 148.7 21.8739C148.7 23.1446 149.358 24 150.599 24ZM150.591 23.5764C149.716 23.5764 149.208 23.0532 149.208 22.2476V22.0981C149.208 21.2925 149.716 20.7693 150.591 20.7693C151.457 20.7693 151.965 21.2925 151.965 22.0981V22.2476C151.965 23.0532 151.457 23.5764 150.591 23.5764Z" fill="#E2DBD6"/>
<path d="M153.919 20.6447V21.0766H154.651C155.542 21.0766 156.034 21.5251 156.034 22.2476V22.3805C156.034 23.1113 155.509 23.5681 154.66 23.5681C153.927 23.5681 153.51 23.2691 153.186 22.7708L152.811 23.0532C153.177 23.593 153.719 24 154.66 24C155.809 24 156.559 23.3356 156.559 22.3307C156.559 21.4586 155.992 20.9769 155.293 20.8606V20.8274C155.942 20.6779 156.442 20.2378 156.442 19.4571C156.442 18.5435 155.717 18.0037 154.743 18.0037C153.835 18.0037 153.319 18.4438 153.044 18.9422L153.419 19.2079C153.66 18.7511 154.052 18.4355 154.735 18.4355C155.434 18.4355 155.917 18.8176 155.917 19.4737V19.5817C155.917 20.2045 155.434 20.6447 154.618 20.6447H153.919Z" fill="#E2DBD6"/>
<path d="M159.079 20.7278C159.845 20.7278 160.444 20.1381 160.444 19.3657C160.444 18.585 159.845 18.0037 159.079 18.0037C158.312 18.0037 157.713 18.585 157.713 19.3657C157.713 20.1381 158.312 20.7278 159.079 20.7278ZM159.079 20.3457C158.512 20.3457 158.138 19.9139 158.138 19.3657C158.138 18.8176 158.512 18.3857 159.079 18.3857C159.645 18.3857 160.02 18.8176 160.02 19.3657C160.02 19.9139 159.645 20.3457 159.079 20.3457Z" fill="#E2DBD6"/>
<path d="M165.421 23.9003V23.4685H163.797V18.1033H163.04L161.382 19.5733L161.665 19.8889L163.264 18.4688H163.306V23.4685H161.574V23.9003H165.421Z" fill="#E2DBD6"/>
<path d="M167.567 24C168.908 24 169.549 22.9868 169.549 21.0018C169.549 19.0169 168.908 18.0037 167.567 18.0037C166.226 18.0037 165.585 19.0169 165.585 21.0018C165.585 22.9868 166.226 24 167.567 24ZM167.567 23.5681C166.567 23.5681 166.118 22.7708 166.118 21.3922V20.6115C166.118 19.2328 166.567 18.4355 167.567 18.4355C168.566 18.4355 169.016 19.2328 169.016 20.6115V21.3922C169.016 22.7708 168.566 23.5681 167.567 23.5681ZM167.567 21.3839C167.858 21.3839 167.967 21.2427 167.967 21.0683V20.9354C167.967 20.761 167.858 20.6198 167.567 20.6198C167.275 20.6198 167.167 20.761 167.167 20.9354V21.0683C167.167 21.2427 167.275 21.3839 167.567 21.3839Z" fill="#E2DBD6"/>
<path d="M172.044 19.9637V17.7545H171.578V19.9637H172.044Z" fill="#E2DBD6"/>
<path d="M177.979 23.4685H174.722L176.555 21.7659C177.271 21.1098 177.721 20.4786 177.721 19.6564C177.721 18.6681 177.104 18.0037 175.997 18.0037C174.922 18.0037 174.389 18.6266 174.173 19.3325L174.614 19.4903C174.814 18.8508 175.214 18.4355 175.988 18.4355C176.779 18.4355 177.196 18.9006 177.196 19.6149V19.7727C177.196 20.379 176.821 20.9188 176.255 21.4503L174.198 23.3937V23.9003H177.979V23.4685Z" fill="#E2DBD6"/>
<path d="M180.307 24C181.448 24 182.181 23.2442 182.181 22.123C182.181 21.0351 181.473 20.354 180.432 20.354C179.724 20.354 179.25 20.6862 178.966 21.2012L178.933 21.1929C179.216 19.8308 179.933 18.9837 181.232 18.1033H180.582C179.499 18.7844 178.409 20.0883 178.409 21.8739C178.409 23.1446 179.066 24 180.307 24ZM180.299 23.5764C179.425 23.5764 178.917 23.0532 178.917 22.2476V22.0981C178.917 21.2925 179.425 20.7693 180.299 20.7693C181.165 20.7693 181.673 21.2925 181.673 22.0981V22.2476C181.673 23.0532 181.165 23.5764 180.299 23.5764Z" fill="#E2DBD6"/>
<path d="M184.543 23.9585C184.893 23.9585 185.026 23.8007 185.026 23.5681V23.4519C185.026 23.2276 184.893 23.0615 184.543 23.0615C184.193 23.0615 184.06 23.2276 184.06 23.4519V23.5681C184.06 23.8007 184.193 23.9585 184.543 23.9585Z" fill="#E2DBD6"/>
<path d="M190.394 18.1033H187.355L187.146 21.251L187.58 21.3174C187.871 20.9935 188.163 20.7859 188.779 20.7859C189.645 20.7859 190.12 21.3008 190.12 22.1064V22.2393C190.12 23.0366 189.628 23.5681 188.762 23.5681C188.029 23.5681 187.638 23.2691 187.313 22.7708L186.93 23.0532C187.296 23.593 187.838 24 188.754 24C189.92 24 190.636 23.2525 190.636 22.1313C190.636 21.0268 189.945 20.3623 188.912 20.3623C188.296 20.3623 187.929 20.57 187.63 20.9769L187.58 20.9686L187.763 18.5352H190.394V18.1033Z" fill="#E2DBD6"/>
<path d="M193.931 19.9637V17.7545H193.464V19.9637H193.931ZM192.598 19.9637V17.7545H192.132V19.9637H192.598Z" fill="#E2DBD6"/>
<path d="M199.091 23.9003V23.4685H196.084V21.1762H198.982V20.7444H196.084V18.5352H199.091V18.1033H195.585V23.9003H199.091Z" fill="#E2DBD6"/>
</svg>
