<svg width="19" height="12" viewBox="0 0 19 12" fill="none" xmlns="http://www.w3.org/2000/svg">
<path d="M10.3831 6.00241C10.3831 8.86755 8.07625 11.1902 5.23072 11.1902C2.38519 11.1902 0.078125 8.86755 0.078125 6.00241C0.078125 3.13727 2.38501 0.814453 5.23072 0.814453C8.07643 0.814453 10.3831 3.13727 10.3831 6.00241Z" fill="white"/>
<path d="M16.0122 6.01297C16.0122 8.70988 14.8588 10.897 13.4359 10.897C12.0131 10.897 10.8596 8.70988 10.8596 6.01297C10.8596 3.31605 12.0129 1.12891 13.4357 1.12891C14.8586 1.12891 16.012 3.31535 16.012 6.01297" fill="white"/>
<path d="M18.3402 6.01646C18.3402 8.43223 17.9346 10.3918 17.4341 10.3918C16.9336 10.3918 16.5282 8.43276 16.5282 6.01646C16.5282 3.60016 16.9338 1.64111 17.4341 1.64111C17.9344 1.64111 18.3402 3.59999 18.3402 6.01646Z" fill="white"/>
</svg>
