<svg width="30" height="30" viewBox="0 0 30 30" fill="none" xmlns="http://www.w3.org/2000/svg">
<path d="M19.1357 4.55566L19.273 4.68412L19.4609 4.69034L25.1223 4.87765L25.3097 10.5391L25.3159 10.727L25.4443 10.8643L29.3152 15L25.4443 19.1357L25.3159 19.273L25.3097 19.4609L25.1223 25.1223L19.4609 25.3097L19.273 25.3159L19.1357 25.4443L15 29.3152L10.8643 25.4443L10.727 25.3159L10.5391 25.3097L4.87765 25.1223L4.69034 19.4609L4.68412 19.273L4.55566 19.1357L0.684836 15L4.55566 10.8643L4.68412 10.727L4.69034 10.5391L4.87765 4.87765L10.5391 4.69034L10.727 4.68412L10.8643 4.55566L15 0.684836L19.1357 4.55566Z" stroke="black"/>
</svg>
