<svg width="104" height="30" viewBox="0 0 104 30" fill="none" xmlns="http://www.w3.org/2000/svg">
<path d="M49.4326 7.37028L49.5699 7.49874L49.7577 7.50496L53.8009 7.63873L53.9346 11.6819L53.9408 11.8697L54.0693 12.007L56.8336 14.9605L54.0693 17.914L53.9408 18.0513L53.9346 18.2392L53.8009 22.2823L49.7577 22.416L49.5699 22.4223L49.4326 22.5507L46.4791 25.3151L43.5256 22.5507L43.3883 22.4223L43.2004 22.416L39.1573 22.2823L39.0235 18.2392L39.0173 18.0513L38.8889 17.914L36.1245 14.9605L38.8889 12.007L39.0173 11.8697L39.0235 11.6819L39.1573 7.63873L43.2004 7.50496L43.3883 7.49874L43.5256 7.37028L46.4791 4.60595L49.4326 7.37028Z" stroke="#C4C4C4"/>
<path d="M60.4715 7.37028L60.6088 7.49874L60.7967 7.50496L64.8398 7.63873L64.9736 11.6819L64.9798 11.8697L65.1082 12.007L67.8726 14.9605L65.1082 17.914L64.9798 18.0513L64.9736 18.2392L64.8398 22.2823L60.7967 22.416L60.6088 22.4223L60.4715 22.5507L57.518 25.3151L54.5645 22.5507L54.4273 22.4223L54.2394 22.416L50.1963 22.2823L50.0625 18.2392L50.0563 18.0513L49.9278 17.914L47.1635 14.9605L49.9278 12.007L50.0563 11.8697L50.0625 11.6819L50.1963 7.63873L54.2394 7.50496L54.4273 7.49874L54.5645 7.37028L57.518 4.60595L60.4715 7.37028Z" stroke="#C4C4C4"/>
<line x1="89.5375" y1="4.38208" x2="89.5375" y2="25.5395" stroke="#C4C4C4"/>
<line x1="99.6168" y1="15.4604" x2="78.4594" y2="15.4604" stroke="#C4C4C4"/>
<line x1="96.8727" y1="7.83347" x2="81.9122" y2="22.794" stroke="#C4C4C4"/>
<line x1="96.1656" y1="22.795" x2="81.2051" y2="7.83443" stroke="#C4C4C4"/>
<line x1="15.4586" y1="4.38208" x2="15.4586" y2="25.5395" stroke="#C4C4C4"/>
<line x1="25.5377" y1="15.4604" x2="4.38033" y2="15.4604" stroke="#C4C4C4"/>
<line x1="22.7939" y1="7.83347" x2="7.83333" y2="22.794" stroke="#C4C4C4"/>
<line x1="22.0868" y1="22.795" x2="7.12623" y2="7.83443" stroke="#C4C4C4"/>
</svg>
