<svg width="32" height="32" viewBox="0 0 32 32" fill="none" xmlns="http://www.w3.org/2000/svg">
<path d="M12.223 24.967C9.92412 23.2064 8.56859 19.3495 9.64252 17.624C11.7769 18.912 13.9113 20.2003 16.0454 21.4887C16.0448 21.6135 16.0445 21.7383 16.0438 21.8627C15.4464 23.7293 14.8358 25.5802 12.223 24.967Z" fill="#58B4DD"/>
<path d="M16.0438 21.8627C16.0444 21.7379 16.0448 21.6131 16.0454 21.4886C18.1773 20.2464 20.3091 19.0038 22.441 17.7612C23.3546 19.9113 22.0135 23.583 19.8038 24.9798C19.1862 25.0736 18.5792 25.2819 17.9542 24.9533C16.702 24.2944 16.4806 23.016 16.0438 21.8627Z" fill="#446DA0"/>
<path d="M22.4409 17.7612C20.309 19.0038 18.1772 20.246 16.0454 21.4886C13.911 20.2003 11.7766 18.9119 9.64215 17.6239C10.3545 17.3209 11.0671 17.0175 11.7794 16.7142C13.2063 17.4876 14.6332 18.2611 16.0601 19.0348C17.4777 18.263 18.8953 17.4915 20.3129 16.7196C21.0226 17.0671 21.7318 17.414 22.4409 17.7612Z" fill="#053647"/>
<path d="M15.9967 5.34819C16.0131 5.32163 16.0297 5.29475 16.0457 5.26819L16.0796 5.28387L16.1171 5.28131C18.1334 8.64675 20.1501 12.0125 22.1664 15.3783C20.1267 14.4967 18.0873 13.6147 16.0476 12.7331C16.0483 12.7053 16.0483 12.6775 16.0476 12.6499C16.0307 10.216 16.0137 7.78211 15.9967 5.34819Z" fill="#456DA0"/>
<path d="M15.9968 5.34821C16.0138 7.78213 16.0307 10.2157 16.0477 12.6496C13.9933 13.5677 11.9389 14.4858 9.88448 15.4039C11.9219 12.0519 13.9594 8.70021 15.9968 5.34821Z" fill="#5AB4DD"/>
<path d="M9.88448 15.4039C11.9389 14.4858 13.9933 13.5677 16.0477 12.6497C16.0483 12.6775 16.0483 12.705 16.0477 12.7329C16.0518 14.8337 16.0563 16.9341 16.0605 19.0349C14.6336 18.2615 13.2067 17.4881 11.7798 16.7143C11.1482 16.2775 10.5165 15.8407 9.88448 15.4039Z" fill="#39567C"/>
<path d="M16.0605 19.0349C16.0563 16.9341 16.0518 14.8336 16.0477 12.7328C18.0874 13.6144 20.1267 14.4963 22.1664 15.3779C21.5488 15.8253 20.9312 16.2723 20.3136 16.7197C18.896 17.4915 17.4784 18.2634 16.0605 19.0349Z" fill="#0D435F"/>
<path d="M16.0438 21.8629C16.4806 23.0158 16.7021 24.2945 17.9542 24.9534C18.5789 25.282 19.1862 25.0737 19.8038 24.98C17.895 26.691 14.5062 26.6852 12.223 24.9672C14.8358 25.5803 15.4464 23.7294 16.0438 21.8629Z" fill="#379DBC"/>
<path d="M16.1171 5.28131L16.0797 5.28387C16.0797 5.28387 16.0455 5.26851 16.0458 5.26819C16.0698 5.27267 16.0934 5.27683 16.1171 5.28131Z" fill="#5AB4DD"/>
</svg>
